<mxfile host="65bd71144e">
    <diagram id="nzYLYeBDhyw-BfEWW8g1" name="Page-1">
        <mxGraphModel dx="936" dy="1724" grid="1" gridSize="10" guides="1" tooltips="1" connect="1" arrows="1" fold="1" page="1" pageScale="1" pageWidth="850" pageHeight="1100" math="0" shadow="0">
            <root>
                <mxCell id="0"/>
                <mxCell id="1" parent="0"/>
                <mxCell id="36" value="NodeStack" style="rounded=1;whiteSpace=wrap;html=1;verticalAlign=top;" parent="1" vertex="1">
                    <mxGeometry x="30" y="-30" width="450" height="460" as="geometry"/>
                </mxCell>
                <mxCell id="30" value="ProcessingNode" style="rounded=0;whiteSpace=wrap;html=1;verticalAlign=top;" parent="1" vertex="1">
                    <mxGeometry x="510" y="-30" width="340" height="460" as="geometry"/>
                </mxCell>
                <mxCell id="18" value="QNodeOsComponent" style="rounded=0;whiteSpace=wrap;html=1;verticalAlign=top;" parent="1" vertex="1">
                    <mxGeometry x="550" y="25" width="230" height="270" as="geometry"/>
                </mxCell>
                <mxCell id="2" value="HandlerComponent" style="rounded=0;whiteSpace=wrap;html=1;" parent="1" vertex="1">
                    <mxGeometry x="610" y="65" width="120" height="60" as="geometry"/>
                </mxCell>
                <mxCell id="3" value="ProcessorComponent" style="rounded=0;whiteSpace=wrap;html=1;" parent="1" vertex="1">
                    <mxGeometry x="610" y="135" width="120" height="60" as="geometry"/>
                </mxCell>
                <mxCell id="4" value="NetStackComponent" style="rounded=0;whiteSpace=wrap;html=1;" parent="1" vertex="1">
                    <mxGeometry x="610" y="205" width="120" height="60" as="geometry"/>
                </mxCell>
                <mxCell id="19" value="QNodeOsProtocol" style="rounded=1;whiteSpace=wrap;html=1;verticalAlign=top;" parent="1" vertex="1">
                    <mxGeometry x="70" y="25" width="320" height="275" as="geometry"/>
                </mxCell>
                <mxCell id="25" style="edgeStyle=orthogonalEdgeStyle;rounded=0;orthogonalLoop=1;jettySize=auto;html=1;exitX=1;exitY=0.5;exitDx=0;exitDy=0;entryX=0;entryY=0.5;entryDx=0;entryDy=0;" parent="1" source="20" target="2" edge="1">
                    <mxGeometry relative="1" as="geometry"/>
                </mxCell>
                <mxCell id="20" value="HandlerProtocol" style="rounded=1;whiteSpace=wrap;html=1;" parent="1" vertex="1">
                    <mxGeometry x="220" y="65" width="120" height="60" as="geometry"/>
                </mxCell>
                <mxCell id="26" style="edgeStyle=orthogonalEdgeStyle;rounded=0;orthogonalLoop=1;jettySize=auto;html=1;exitX=1;exitY=0.5;exitDx=0;exitDy=0;entryX=0;entryY=0.5;entryDx=0;entryDy=0;" parent="1" source="21" target="3" edge="1">
                    <mxGeometry relative="1" as="geometry"/>
                </mxCell>
                <mxCell id="21" value="ProcessorProtocol" style="rounded=1;whiteSpace=wrap;html=1;" parent="1" vertex="1">
                    <mxGeometry x="220" y="135" width="120" height="60" as="geometry"/>
                </mxCell>
                <mxCell id="28" style="edgeStyle=orthogonalEdgeStyle;rounded=0;orthogonalLoop=1;jettySize=auto;html=1;exitX=1;exitY=0.5;exitDx=0;exitDy=0;entryX=0;entryY=0.5;entryDx=0;entryDy=0;" parent="1" source="22" target="4" edge="1">
                    <mxGeometry relative="1" as="geometry"/>
                </mxCell>
                <mxCell id="22" value="NetStackProtocol" style="rounded=1;whiteSpace=wrap;html=1;" parent="1" vertex="1">
                    <mxGeometry x="220" y="205" width="120" height="60" as="geometry"/>
                </mxCell>
                <mxCell id="5" value="EgpProtocol" style="rounded=1;whiteSpace=wrap;html=1;" parent="1" vertex="1">
                    <mxGeometry x="90" y="205" width="120" height="60" as="geometry"/>
                </mxCell>
                <mxCell id="23" value="MagicLinkLayerProtocol" style="rounded=1;whiteSpace=wrap;html=1;" parent="1" vertex="1">
                    <mxGeometry x="200" y="480" width="170" height="60" as="geometry"/>
                </mxCell>
                <mxCell id="29" value="HostComponent" style="rounded=0;whiteSpace=wrap;html=1;verticalAlign=middle;" parent="1" vertex="1">
                    <mxGeometry x="540" y="320" width="110" height="70" as="geometry"/>
                </mxCell>
                <mxCell id="31" value="QDevice" style="rounded=0;whiteSpace=wrap;html=1;verticalAlign=middle;" parent="1" vertex="1">
                    <mxGeometry x="680" y="320" width="110" height="70" as="geometry"/>
                </mxCell>
                <mxCell id="33" style="edgeStyle=orthogonalEdgeStyle;rounded=0;orthogonalLoop=1;jettySize=auto;html=1;exitX=1;exitY=0.5;exitDx=0;exitDy=0;" parent="1" source="32" target="29" edge="1">
                    <mxGeometry relative="1" as="geometry"/>
                </mxCell>
                <mxCell id="32" value="HostProtocol" style="rounded=1;whiteSpace=wrap;html=1;verticalAlign=middle;" parent="1" vertex="1">
                    <mxGeometry x="220" y="323.75" width="110" height="62.5" as="geometry"/>
                </mxCell>
                <mxCell id="34" value="App Memories" style="rounded=0;whiteSpace=wrap;html=1;verticalAlign=middle;" parent="1" vertex="1">
                    <mxGeometry x="95" y="50" width="65" height="40" as="geometry"/>
                </mxCell>
                <mxCell id="35" value="Physical Memory" style="rounded=0;whiteSpace=wrap;html=1;verticalAlign=middle;" parent="1" vertex="1">
                    <mxGeometry x="95" y="110" width="65" height="40" as="geometry"/>
                </mxCell>
            </root>
        </mxGraphModel>
    </diagram>
</mxfile>